<svg xmlns="http://www.w3.org/2000/svg" viewBox="-46 -50 100 110">
  <rect x="-46" y="-50" width="100" height="110" rx="8" fill="#000000"/>
  <!-- 猫本体 (MOMO Works 共通) -->
  <g transform="rotate(-12,-12,8.3)"><path d="M-21.6,-14.94 L-14.549,-35.916 Q-12,-43.5 -9.451,-35.916 L-2.4,-14.94 Z" fill="#c2410c"/></g>
  <g transform="rotate(12,12,8.3)"><path d="M2.4,-14.94 L9.451,-35.916 Q12,-43.5 14.549,-35.916 L21.6,-14.94 Z" fill="#c2410c"/></g>
  <ellipse cx="0" cy="1.3" rx="34" ry="26" fill="#c2410c"/>
  <line x1="-14" y1="1.00" x2="-33.68" y2="-2.28" stroke="#000" stroke-width="1.8" stroke-linecap="round"/>
  <line x1="-14" y1="6.0"  x2="-33.44" y2="6.0"   stroke="#000" stroke-width="1.8" stroke-linecap="round"/>
  <line x1="-14" y1="10.59" x2="-29.58" y2="14.26" stroke="#000" stroke-width="1.8" stroke-linecap="round"/>
  <line x1="-33.68" y1="-2.28" x2="-38" y2="-3"  stroke="#c2410c" stroke-width="1.8" stroke-linecap="round"/>
  <line x1="-33.44" y1="6.0"   x2="-40" y2="6"   stroke="#c2410c" stroke-width="1.8" stroke-linecap="round"/>
  <line x1="-29.58" y1="14.26" x2="-37" y2="16"  stroke="#c2410c" stroke-width="1.8" stroke-linecap="round"/>
  <line x1="14" y1="1.00" x2="33.68" y2="-2.28" stroke="#000" stroke-width="1.8" stroke-linecap="round"/>
  <line x1="14" y1="6.0"  x2="33.44" y2="6.0"   stroke="#000" stroke-width="1.8" stroke-linecap="round"/>
  <line x1="14" y1="10.59" x2="29.58" y2="14.26" stroke="#000" stroke-width="1.8" stroke-linecap="round"/>
  <line x1="33.68" y1="-2.28" x2="38" y2="-3"  stroke="#c2410c" stroke-width="1.8" stroke-linecap="round"/>
  <line x1="33.44" y1="6.0"   x2="40" y2="6"   stroke="#c2410c" stroke-width="1.8" stroke-linecap="round"/>
  <line x1="29.58" y1="14.26" x2="37" y2="16"  stroke="#c2410c" stroke-width="1.8" stroke-linecap="round"/>
  <ellipse cx="-12" cy="-3.7" rx="4.2" ry="5.6" fill="#1a0800"/>
  <ellipse cx="12"  cy="-3.7" rx="4.2" ry="5.6" fill="#1a0800"/>
  <ellipse cx="-12" cy="-3.7" rx="2.4" ry="3.5" fill="#000"/>
  <ellipse cx="12"  cy="-3.7" rx="2.4" ry="3.5" fill="#000"/>
  <circle cx="-10.5" cy="-5.2" r="1.0" fill="#c2410c"/>
  <circle cx="13.5"  cy="-5.2" r="1.0" fill="#c2410c"/>
  <path d="M0,6.3 C-0.8,4.8 -3.5,4.8 -3.5,7.3 C-3.5,9.3 0,11.3 0,11.3 C0,11.3 3.5,9.3 3.5,7.3 C3.5,4.8 0.8,4.8 0,6.3 Z" fill="#000"/>
  <line x1="0" y1="11.3" x2="0" y2="13.3" stroke="#000" stroke-width="2.5" stroke-linecap="round"/>
  <path d="M0,13.3 Q-5,17.3 -8,15.3" fill="none" stroke="#000" stroke-width="2.5" stroke-linecap="round"/>
  <path d="M0,13.3 Q5,17.3  8,15.3" fill="none" stroke="#000" stroke-width="2.5" stroke-linecap="round"/>
  <!-- Go 固有: 左下隅の小ジョセキ攻防 (星 4-4 = 中心 26,22) -->
  <g id="go-overlay">
    <rect x="-1" y="-5" width="54" height="54" rx="2" fill="#d4a071" stroke="#000" stroke-width="0.8"/>
    <g stroke="#000" stroke-width="0.6" opacity="0.85">
      <line x1="2"  y1="-5" x2="2"  y2="46"/>
      <line x1="10" y1="-5" x2="10" y2="46"/>
      <line x1="18" y1="-5" x2="18" y2="46"/>
      <line x1="26" y1="-5" x2="26" y2="46"/>
      <line x1="34" y1="-5" x2="34" y2="46"/>
      <line x1="42" y1="-5" x2="42" y2="46"/>
      <line x1="50" y1="-5" x2="50" y2="46"/>
      <line x1="-1" y1="-2" x2="51" y2="-2"/>
      <line x1="-1" y1="6"  x2="51" y2="6"/>
      <line x1="-1" y1="14" x2="51" y2="14"/>
      <line x1="-1" y1="22" x2="51" y2="22"/>
      <line x1="-1" y1="30" x2="51" y2="30"/>
      <line x1="-1" y1="38" x2="51" y2="38"/>
      <line x1="-1" y1="46" x2="51" y2="46"/>
    </g>
    <line x1="2"  y1="46" x2="50" y2="46" stroke="#000" stroke-width="1.2"/>
    <line x1="2"  y1="-5" x2="2"  y2="46" stroke="#000" stroke-width="1.2"/>
    <circle cx="26" cy="22" r="1.3" fill="#000"/>
    <circle cx="26" cy="22" r="4.5" fill="#0a0a0a" stroke="#000" stroke-width="0.6"/>
    <circle cx="42" cy="30" r="4.5" fill="#f5f5f5" stroke="#000" stroke-width="0.6"/>
    <circle cx="26" cy="30" r="4.5" fill="#0a0a0a" stroke="#000" stroke-width="0.6"/>
    <circle cx="34" cy="30" r="4.5" fill="#f5f5f5" stroke="#000" stroke-width="0.6"/>
  </g>
</svg>
