<svg xmlns="http://www.w3.org/2000/svg" viewBox="-46 -50 100 110">
  <rect x="-46" y="-50" width="100" height="110" rx="8" fill="#000000"/>
  <!-- 猫本体 (MOMO Works 共通) -->
  <g transform="rotate(-12,-12,8.3)"><path d="M-21.6,-14.94 L-14.549,-35.916 Q-12,-43.5 -9.451,-35.916 L-2.4,-14.94 Z" fill="#c2410c"/></g>
  <g transform="rotate(12,12,8.3)"><path d="M2.4,-14.94 L9.451,-35.916 Q12,-43.5 14.549,-35.916 L21.6,-14.94 Z" fill="#c2410c"/></g>
  <ellipse cx="0" cy="1.3" rx="34" ry="26" fill="#c2410c"/>
  <line x1="-14" y1="1.00" x2="-33.68" y2="-2.28" stroke="#000" stroke-width="1.8" stroke-linecap="round"/>
  <line x1="-14" y1="6.0"  x2="-33.44" y2="6.0"   stroke="#000" stroke-width="1.8" stroke-linecap="round"/>
  <line x1="-14" y1="10.59" x2="-29.58" y2="14.26" stroke="#000" stroke-width="1.8" stroke-linecap="round"/>
  <line x1="-33.68" y1="-2.28" x2="-38" y2="-3"  stroke="#c2410c" stroke-width="1.8" stroke-linecap="round"/>
  <line x1="-33.44" y1="6.0"   x2="-40" y2="6"   stroke="#c2410c" stroke-width="1.8" stroke-linecap="round"/>
  <line x1="-29.58" y1="14.26" x2="-37" y2="16"  stroke="#c2410c" stroke-width="1.8" stroke-linecap="round"/>
  <line x1="14" y1="1.00" x2="33.68" y2="-2.28" stroke="#000" stroke-width="1.8" stroke-linecap="round"/>
  <line x1="14" y1="6.0"  x2="33.44" y2="6.0"   stroke="#000" stroke-width="1.8" stroke-linecap="round"/>
  <line x1="14" y1="10.59" x2="29.58" y2="14.26" stroke="#000" stroke-width="1.8" stroke-linecap="round"/>
  <line x1="33.68" y1="-2.28" x2="38" y2="-3"  stroke="#c2410c" stroke-width="1.8" stroke-linecap="round"/>
  <line x1="33.44" y1="6.0"   x2="40" y2="6"   stroke="#c2410c" stroke-width="1.8" stroke-linecap="round"/>
  <line x1="29.58" y1="14.26" x2="37" y2="16"  stroke="#c2410c" stroke-width="1.8" stroke-linecap="round"/>
  <ellipse cx="-12" cy="-3.7" rx="4.2" ry="5.6" fill="#1a0800"/>
  <ellipse cx="12"  cy="-3.7" rx="4.2" ry="5.6" fill="#1a0800"/>
  <ellipse cx="-12" cy="-3.7" rx="2.4" ry="3.5" fill="#000"/>
  <ellipse cx="12"  cy="-3.7" rx="2.4" ry="3.5" fill="#000"/>
  <circle cx="-10.5" cy="-5.2" r="1.0" fill="#c2410c"/>
  <circle cx="13.5"  cy="-5.2" r="1.0" fill="#c2410c"/>
  <path d="M0,6.3 C-0.8,4.8 -3.5,4.8 -3.5,7.3 C-3.5,9.3 0,11.3 0,11.3 C0,11.3 3.5,9.3 3.5,7.3 C3.5,4.8 0.8,4.8 0,6.3 Z" fill="#000"/>
  <line x1="0" y1="11.3" x2="0" y2="13.3" stroke="#000" stroke-width="2.5" stroke-linecap="round"/>
  <path d="M0,13.3 Q-5,17.3 -8,15.3" fill="none" stroke="#000" stroke-width="2.5" stroke-linecap="round"/>
  <path d="M0,13.3 Q5,17.3  8,15.3" fill="none" stroke="#000" stroke-width="2.5" stroke-linecap="round"/>
  <!-- MOMO Shogi 固有: 王将駒 (右下・木目色) — Yuji Syuku のグリフを path 埋め込み
       CatIcon.tsx の text 版と視覚一致（font-size=30 相当・stroke 1.4 相当を font 単位で 47 に）
       favicon はウェブフォントを読み込めない環境が多いため、text ではなく path を使用 -->
  <g transform="translate(26,22)">
    <path d="M0,-22 L18,-10 L22,24 L-22,24 L-18,-10 Z" fill="#e9d3a3"/>
    <g transform="translate(-15,14) scale(0.03,-0.03)"
       fill="#0a0a0a" stroke="#0a0a0a" stroke-width="47" stroke-linejoin="round" paint-order="stroke">
      <path d="M950 17Q940 1 922 1Q904 1 889 13Q757 28 624 28Q547 28 470.5 21.5Q394 15 319 -2Q295 -7 276.5 -8.5Q258 -10 248 -20Q241 -27 231.5 -29.5Q222 -32 212 -32Q174 -32 141.0 -12.0Q108 8 89.0 34.5Q70 61 73 80Q121 74 171 74Q247 74 322.5 82.0Q398 90 474 94Q475 115 474.5 147.0Q474 179 473 215Q473 241 472.5 267.0Q472 293 472 317Q457 315 441.5 315.0Q426 315 410 316Q396 316 382.5 316.0Q369 316 355 315Q338 314 323.5 305.0Q309 296 292 296Q265 296 244.5 312.5Q224 329 210.0 353.5Q196 378 188 400Q226 393 265.5 392.0Q305 391 344 391Q348 391 351.5 391.0Q355 391 358 391Q386 391 415.0 391.5Q444 392 472 393Q473 408 472.5 423.0Q472 438 471 453Q471 464 470.5 474.0Q470 484 470 494Q470 495 470 497Q470 516 468.5 540.5Q467 565 461.0 587.5Q455 610 439 622Q424 620 408.5 619.5Q393 619 376 619Q344 619 312.0 616.0Q280 613 254 594Q226 599 205.0 618.5Q184 638 170.5 664.5Q157 691 150 716Q155 718 160.0 719.0Q165 720 170 720Q186 720 218.0 708.0Q250 696 296 696Q343 696 390.0 700.5Q437 705 483 706Q536 708 592.0 711.0Q648 714 700 728Q705 730 706.5 734.0Q708 738 712 742Q744 742 766.0 733.5Q788 725 808.5 712.0Q829 699 854 684Q854 679 855.0 675.5Q856 672 857 668Q858 664 859.5 659.0Q861 654 861 648Q846 647 831.0 646.5Q816 646 801 646Q775 646 748.5 644.5Q722 643 696 638Q691 637 687 643Q686 645 685 646Q679 636 667.0 634.5Q655 633 644 634Q638 634 636 634Q621 634 611 629Q605 631 606 636Q592 635 578.5 632.5Q565 630 551 628Q557 611 568 597Q561 566 560.0 533.5Q559 501 559 468Q558 450 558.0 433.0Q558 416 557 399Q562 399 568.0 399.5Q574 400 580 400Q603 401 628.5 404.0Q654 407 663 425Q680 424 704.0 419.5Q728 415 751.0 406.5Q774 398 790.0 383.5Q806 369 807 346Q793 339 778.0 336.5Q763 334 747 334Q731 334 714.5 332.5Q698 331 681 331Q675 331 669.0 331.0Q663 331 657 330Q637 327 605.5 324.5Q574 322 555 320Q556 284 554.5 246.0Q553 208 551 175Q549 152 548.5 132.5Q548 113 548 100Q564 98 578.5 97.5Q593 97 608 98Q613 98 618.0 98.0Q623 98 629 98Q656 98 683.5 98.5Q711 99 738 100Q746 100 746.5 109.0Q747 118 754 118Q793 118 831.5 108.5Q870 99 901.5 77.0Q933 55 950 17Z"/>
    </g>
  </g>
</svg>
