<svg xmlns="http://www.w3.org/2000/svg" viewBox="-46 -50 100 110">
  <rect x="-46" y="-50" width="100" height="110" rx="8" fill="#000000"/>
  <!-- 猫本体 (MOMO Works 共通) -->
  <g transform="rotate(-12,-12,8.3)"><path d="M-21.6,-14.94 L-14.549,-35.916 Q-12,-43.5 -9.451,-35.916 L-2.4,-14.94 Z" fill="#c2410c"/></g>
  <g transform="rotate(12,12,8.3)"><path d="M2.4,-14.94 L9.451,-35.916 Q12,-43.5 14.549,-35.916 L21.6,-14.94 Z" fill="#c2410c"/></g>
  <ellipse cx="0" cy="1.3" rx="34" ry="26" fill="#c2410c"/>
  <line x1="-14" y1="1.00" x2="-33.68" y2="-2.28" stroke="#000" stroke-width="1.8" stroke-linecap="round"/>
  <line x1="-14" y1="6.0"  x2="-33.44" y2="6.0"   stroke="#000" stroke-width="1.8" stroke-linecap="round"/>
  <line x1="-14" y1="10.59" x2="-29.58" y2="14.26" stroke="#000" stroke-width="1.8" stroke-linecap="round"/>
  <line x1="-33.68" y1="-2.28" x2="-38" y2="-3"  stroke="#c2410c" stroke-width="1.8" stroke-linecap="round"/>
  <line x1="-33.44" y1="6.0"   x2="-40" y2="6"   stroke="#c2410c" stroke-width="1.8" stroke-linecap="round"/>
  <line x1="-29.58" y1="14.26" x2="-37" y2="16"  stroke="#c2410c" stroke-width="1.8" stroke-linecap="round"/>
  <line x1="14" y1="1.00" x2="33.68" y2="-2.28" stroke="#000" stroke-width="1.8" stroke-linecap="round"/>
  <line x1="14" y1="6.0"  x2="33.44" y2="6.0"   stroke="#000" stroke-width="1.8" stroke-linecap="round"/>
  <line x1="14" y1="10.59" x2="29.58" y2="14.26" stroke="#000" stroke-width="1.8" stroke-linecap="round"/>
  <line x1="33.68" y1="-2.28" x2="38" y2="-3"  stroke="#c2410c" stroke-width="1.8" stroke-linecap="round"/>
  <line x1="33.44" y1="6.0"   x2="40" y2="6"   stroke="#c2410c" stroke-width="1.8" stroke-linecap="round"/>
  <line x1="29.58" y1="14.26" x2="37" y2="16"  stroke="#c2410c" stroke-width="1.8" stroke-linecap="round"/>
  <ellipse cx="-12" cy="-3.7" rx="4.2" ry="5.6" fill="#1a0800"/>
  <ellipse cx="12"  cy="-3.7" rx="4.2" ry="5.6" fill="#1a0800"/>
  <ellipse cx="-12" cy="-3.7" rx="2.4" ry="3.5" fill="#000"/>
  <ellipse cx="12"  cy="-3.7" rx="2.4" ry="3.5" fill="#000"/>
  <circle cx="-10.5" cy="-5.2" r="1.0" fill="#c2410c"/>
  <circle cx="13.5"  cy="-5.2" r="1.0" fill="#c2410c"/>
  <path d="M0,6.3 C-0.8,4.8 -3.5,4.8 -3.5,7.3 C-3.5,9.3 0,11.3 0,11.3 C0,11.3 3.5,9.3 3.5,7.3 C3.5,4.8 0.8,4.8 0,6.3 Z" fill="#000"/>
  <line x1="0" y1="11.3" x2="0" y2="13.3" stroke="#000" stroke-width="2.5" stroke-linecap="round"/>
  <path d="M0,13.3 Q-5,17.3 -8,15.3" fill="none" stroke="#000" stroke-width="2.5" stroke-linecap="round"/>
  <path d="M0,13.3 Q5,17.3  8,15.3" fill="none" stroke="#000" stroke-width="2.5" stroke-linecap="round"/>
  <!-- MOMO Shogi 固有: 王将駒 (右下・木目色) -->
  <g id="shogi-overlay">
    <!-- 駒の五角形（上に尖った将棋駒・木目色） -->
    <path d="M 26,-5 L 8,4 L 3,48 L 49,48 L 44,4 Z"
          fill="#e9d3a3" stroke="#7a5a30" stroke-width="1.5" stroke-linejoin="round"/>
    <!-- 「王」の文字を長方形の組み合わせで描画（favicon の小さいサイズでも識別可） -->
    <g fill="#2a1c0c">
      <!-- 上の横棒 -->
      <rect x="16" y="12" width="20" height="3.5"/>
      <!-- 中央の横棒（少し短め） -->
      <rect x="19" y="24" width="14" height="3"/>
      <!-- 縦棒（三本の横棒を貫通） -->
      <rect x="24" y="11" width="4" height="32"/>
      <!-- 下の横棒（一番長い） -->
      <rect x="12" y="39" width="28" height="4"/>
    </g>
  </g>
</svg>
