<svg xmlns="http://www.w3.org/2000/svg" viewBox="-46 -50 100 110">
  <rect x="-46" y="-50" width="100" height="110" rx="8" fill="#000000"/>
  <!-- 猫本体 (MOMO Works 共通) -->
  <g transform="rotate(-12,-12,8.3)"><path d="M-21.6,-14.94 L-14.549,-35.916 Q-12,-43.5 -9.451,-35.916 L-2.4,-14.94 Z" fill="#c2410c"/></g>
  <g transform="rotate(12,12,8.3)"><path d="M2.4,-14.94 L9.451,-35.916 Q12,-43.5 14.549,-35.916 L21.6,-14.94 Z" fill="#c2410c"/></g>
  <ellipse cx="0" cy="1.3" rx="34" ry="26" fill="#c2410c"/>
  <line x1="-14" y1="1.00" x2="-33.68" y2="-2.28" stroke="#000" stroke-width="1.8" stroke-linecap="round"/>
  <line x1="-14" y1="6.0"  x2="-33.44" y2="6.0"   stroke="#000" stroke-width="1.8" stroke-linecap="round"/>
  <line x1="-14" y1="10.59" x2="-29.58" y2="14.26" stroke="#000" stroke-width="1.8" stroke-linecap="round"/>
  <line x1="-33.68" y1="-2.28" x2="-38" y2="-3"  stroke="#c2410c" stroke-width="1.8" stroke-linecap="round"/>
  <line x1="-33.44" y1="6.0"   x2="-40" y2="6"   stroke="#c2410c" stroke-width="1.8" stroke-linecap="round"/>
  <line x1="-29.58" y1="14.26" x2="-37" y2="16"  stroke="#c2410c" stroke-width="1.8" stroke-linecap="round"/>
  <line x1="14" y1="1.00" x2="33.68" y2="-2.28" stroke="#000" stroke-width="1.8" stroke-linecap="round"/>
  <line x1="14" y1="6.0"  x2="33.44" y2="6.0"   stroke="#000" stroke-width="1.8" stroke-linecap="round"/>
  <line x1="14" y1="10.59" x2="29.58" y2="14.26" stroke="#000" stroke-width="1.8" stroke-linecap="round"/>
  <line x1="33.68" y1="-2.28" x2="38" y2="-3"  stroke="#c2410c" stroke-width="1.8" stroke-linecap="round"/>
  <line x1="33.44" y1="6.0"   x2="40" y2="6"   stroke="#c2410c" stroke-width="1.8" stroke-linecap="round"/>
  <line x1="29.58" y1="14.26" x2="37" y2="16"  stroke="#c2410c" stroke-width="1.8" stroke-linecap="round"/>
  <ellipse cx="-12" cy="-3.7" rx="4.2" ry="5.6" fill="#1a0800"/>
  <ellipse cx="12"  cy="-3.7" rx="4.2" ry="5.6" fill="#1a0800"/>
  <ellipse cx="-12" cy="-3.7" rx="2.4" ry="3.5" fill="#000"/>
  <ellipse cx="12"  cy="-3.7" rx="2.4" ry="3.5" fill="#000"/>
  <circle cx="-10.5" cy="-5.2" r="1.0" fill="#c2410c"/>
  <circle cx="13.5"  cy="-5.2" r="1.0" fill="#c2410c"/>
  <path d="M0,6.3 C-0.8,4.8 -3.5,4.8 -3.5,7.3 C-3.5,9.3 0,11.3 0,11.3 C0,11.3 3.5,9.3 3.5,7.3 C3.5,4.8 0.8,4.8 0,6.3 Z" fill="#000"/>
  <line x1="0" y1="11.3" x2="0" y2="13.3" stroke="#000" stroke-width="2.5" stroke-linecap="round"/>
  <path d="M0,13.3 Q-5,17.3 -8,15.3" fill="none" stroke="#000" stroke-width="2.5" stroke-linecap="round"/>
  <path d="M0,13.3 Q5,17.3  8,15.3" fill="none" stroke="#000" stroke-width="2.5" stroke-linecap="round"/>
  <!-- Reversi 固有: 中央 4 マス + 周り 1 マスを半分だけ覗かせた盤面 (中心 26,22) -->
  <g id="reversi-overlay">
    <rect x="-1" y="-5" width="54" height="54" rx="2.5" fill="#0a8043" stroke="#000" stroke-width="0.8"/>
    <g stroke="#000" stroke-width="0.7" opacity="0.7">
      <line x1="4"  y1="-3" x2="4"  y2="47"/>
      <line x1="15" y1="-3" x2="15" y2="47"/>
      <line x1="26" y1="-3" x2="26" y2="47"/>
      <line x1="37" y1="-3" x2="37" y2="47"/>
      <line x1="48" y1="-3" x2="48" y2="47"/>
      <line x1="-1" y1="0"  x2="51" y2="0"/>
      <line x1="-1" y1="11" x2="51" y2="11"/>
      <line x1="-1" y1="22" x2="51" y2="22"/>
      <line x1="-1" y1="33" x2="51" y2="33"/>
      <line x1="-1" y1="44" x2="51" y2="44"/>
    </g>
    <circle cx="20.5" cy="16.5" r="4.5" fill="#f5f5f5" stroke="#000" stroke-width="0.6"/>
    <circle cx="31.5" cy="16.5" r="4.5" fill="#0a0a0a" stroke="#000" stroke-width="0.6"/>
    <circle cx="20.5" cy="27.5" r="4.5" fill="#0a0a0a" stroke="#000" stroke-width="0.6"/>
    <circle cx="31.5" cy="27.5" r="4.5" fill="#f5f5f5" stroke="#000" stroke-width="0.6"/>
  </g>
</svg>
