<svg xmlns="http://www.w3.org/2000/svg" data-name="图层 1" viewBox="0 0 19 26"><rect width="18.75" height="25.75" x=".12" y=".12" rx="1.88" ry="1.88" style="fill:#f5f6f7"/><path d="M17 .25c.96 0 1.75.79 1.75 1.75v22c0 .96-.79 1.75-1.75 1.75H2c-.96 0-1.75-.79-1.75-1.75V2C.25 1.04 1.04.25 2 .25zM17 0H2a2 2 0 0 0-2 2v22c0 1.1.9 2 2 2h15a2 2 0 0 0 2-2V2a2 2 0 0 0-2-2" style="fill:#93989c"/><path d="M4.16 10.73q.07-.18.28-.18.13 0 .93.36 1.74-.36 3.17-.78-.04-.21-.04-.78-.1 0-.53.11-.42.1-.71.11-.68 0-.89-.5.14-.04.87-.12.73-.09 1.19-.27v-.11a3.7 3.7 0 0 0-.64-2.17 3.3 3.3 0 0 1-.64-1.92q1 .46 2.03.73 1.04.27 1.32.41.28.15.28.57 0 .21-.2.32l-.43.2q-.23.09-.46.52-.23.42-.3 1.18.54-.14.82-.41t.43-.27q.31 0 .69.23t.37.41c0 .18-.1.21-.3.28q-.3.1-.96.23-.66.12-1.09.27 0 .14-.04.43l-.04.39 3.03-.53q.32 0 .89.62.57.63.57 1.05 0 .36-.78.46-.25.67-.78 1.35-.54.67-.53 1 0 .57-.32.57-.21 0-.53-.25a2 2 0 0 0-.71.14 7 7 0 0 0 2.37 1.89q1.41.67 2.58 1.14t1.64 1.18a4 4 0 0 1-1.09-.32 2 2 0 0 0-.77-.25q-.14 0-.71.34t-.96.34q-.5 0-1-.52-.5-.51-1.34-1.82-.84-1.3-1.3-1.91a1 1 0 0 1-.28.04q0 .39-.04 1l-.04.93q0 1 .27 2.58.27 1.59.27 1.76 0 1.64-.68 1.64-.39 0-.75-1a5 5 0 0 1-.36-1.78q0-.36-1.75-2.74-1.92 1.57-3.03 1.57-.6 0-.85-.11a19 19 0 0 0 3.49-2.14l-.14-.46.32.25a5 5 0 0 0 1.14-1.53q-.36-.03-.68-.43-.04-.04.02-.12.05-.09.05-.12 0-.07-.52-.68l-1.1-1.34a7 7 0 0 1-.73-1.02Zm4.38-.14q-1.45.28-2.67.82.6.6.71.78.32-.18 1.01-.27.7-.09.98-.16l-.02-.57zm.07 3.92s-.14 0-.27-.02l-.3-.02q-.43.75-1.53 2.1.18.18.52.61.34.42.61.66.27.23.44.23.32 0 .53-3.56m-.04-2.07q-1.21.07-1.6.29.25.57.61.93.18.03.53.05l.5.02-.02-.68zm3.42-1.92q0-.28-.85-.28a6 6 0 0 0-1.85.25q-.03.26-.05.66l-.02.55q.5-.07.8-.28t.69-.21q.14 0 .27.07t.28.21.27.21q.46-.82.46-1.18m-.71 1.67a1 1 0 0 0-.39-.14q-.18 0-.78.14l-.85.18q-.04.18-.04.61c0 .43.01.51.04.68q.54 0 1.32-.18.1-.14.36-.62.25-.48.36-.66Z" style="fill:#231815"/></svg>